<?xml version="1.0" encoding="utf-16"?><svg viewBox="0 0 200 200" xmlns="http://www.w3.org/2000/svg"><!-- Pizza Background --><circle cx="100" cy="100" r="90" fill="sandybrown" /><circle cx="100" cy="100" r="80" fill="moccasin" /><!-- Pepperoni --><circle cx="65" cy="65" r="10" fill="firebrick" /><circle cx="135" cy="135" r="10" fill="firebrick" /><circle cx="85" cy="135" r="10" fill="firebrick" /><circle cx="130" cy="70" r="10" fill="firebrick" /><circle cx="100" cy="100" r="10" fill="firebrick" /><!-- Mushrooms --><rect x="50" y="50" width="10" height="20" fill="wheat" /><rect x="140" y="55" width="10" height="20" fill="wheat" /><rect x="55" y="130" width="10" height="20" fill="wheat" /><!-- Olives --><circle cx="70" cy="150" r="5" fill="black" /><circle cx="145" cy="75" r="5" fill="black" /><circle cx="110" cy="50" r="5" fill="black" /><!-- Bell Peppers --><path fill="green" d="M100,30Q115,35 120,45 125,35 140,30 130,45 135,60 115,55 100,60 85,55 65,60 70,45 60,30 80,35 85,45 90,35 100,30" /><!-- Cheese --><path fill="gold" d="M160,140Q180,100 100,140 20,100 40,140 60,100 160,140" /><!-- Pizza Crust --><circle cx="100" cy="100" r="90" fill="none" stroke="sienna" stroke-width="10" /></svg>