<?xml version="1.0" encoding="utf-16"?><svg viewBox="0 0 200 200" xmlns="http://www.w3.org/2000/svg"><!-- Taco Shell --><path fill="#FFC107" stroke="#FF9800" stroke-width="3" d="M50,100Q100,30 150,100 100,120 50,100" /><!-- Pulled Pork --><path fill="#795548" stroke="#6D4C41" stroke-width="2" d="M60,85Q80,70 120,85 90,95 60,85" /><!-- Salsa --><circle cx="80" cy="75" r="5" fill="#F44336" /><circle cx="100" cy="80" r="5" fill="#FF5722" /><circle cx="120" cy="75" r="5" fill="#E91E63" /><!-- Corn --><circle cx="75" cy="95" r="3" fill="#FFEB3B" /><circle cx="90" cy="90" r="3" fill="#FFEB3B" /><circle cx="105" cy="95" r="3" fill="#FFEB3B" /><!-- Coriander --><path fill="#4CAF50" stroke="#388E3C" stroke-width="1" d="M70,90Q74,84 78,90 82,86 86,90 90,86 94,90 98,84 102,90L90,100Q88,96 86,100 84,96 82,100 80,96 78,100 76,96 74,100" /></svg>