<?xml version="1.0" encoding="utf-16"?><svg viewBox="0 0 200 200" xmlns="http://www.w3.org/2000/svg"><rect width="200" height="200" fill="#F5E6CA" /><circle cx="100" cy="100" r="90" fill="#FFF5E1" stroke="#D4AF37" stroke-width="5" /><!-- Plate --><ellipse cx="100" cy="150" rx="60" ry="15" fill="#FFF" stroke="#D4AF37" stroke-width="3" /><ellipse cx="100" cy="150" rx="55" ry="12" fill="#F5E6CA" /><!-- Rice --><circle cx="100" cy="140" r="20" fill="#FFF" stroke="#D4AF37" stroke-width="2" /><path stroke="#D4AF37" stroke-width="2" d="M90,135l10,10M95,130l10,10M105,135l10,10M100,140l10,10M95,145l10,10" /><!-- Sursøtsaus --><path fill="#F44141" d="M80,170c10,-20 50,-20 60,0" /><circle cx="90" cy="160" r="5" fill="#D13838" /><circle cx="110" cy="160" r="5" fill="#D13838" /><circle cx="130" cy="160" r="5" fill="#D13838" /><!-- Meat --><path fill="#A86B32" d="M100,145c0,2 -2,5 -5,5s-5,-3 -5,-5 2,-5 5,-5S100,143 100,145z" /><path fill="#A86B32" d="M115,150c0,2 -2,5 -5,5s-5,-3 -5,-5 2,-5 5,-5S115,148 115,150z" /><path fill="#A86B32" d="M85,150c0,2 -2,5 -5,5s-5,-3 -5,-5 2,-5 5,-5S85,148 85,150z" /><path fill="#A86B32" d="M95,155c0,2 -2,5 -5,5s-5,-3 -5,-5 2,-5 5,-5S95,153 95,155z" /><path fill="#A86B32" d="M110,155c0,2 -2,5 -5,5s-5,-3 -5,-5 2,-5 5,-5S110,153 110,155z" /></svg>